<svg xmlns="http://www.w3.org/2000/svg" viewBox="0 0 100 100">
  <defs>
    <linearGradient id="cakeGrad" x1="0%" y1="0%" x2="0%" y2="100%">
      <stop offset="0%" style="stop-color:#feca57"/>
      <stop offset="100%" style="stop-color:#ff9f43"/>
    </linearGradient>
    <linearGradient id="frostGrad" x1="0%" y1="0%" x2="0%" y2="100%">
      <stop offset="0%" style="stop-color:#ff6b9d"/>
      <stop offset="100%" style="stop-color:#c44569"/>
    </linearGradient>
  </defs>
  <!-- Cake base -->
  <rect x="15" y="50" width="70" height="40" rx="5" fill="url(#cakeGrad)"/>
  <!-- Frosting -->
  <path d="M15 55 Q25 40 35 55 Q45 40 55 55 Q65 40 75 55 Q85 40 85 55 L85 50 L15 50 Z" fill="url(#frostGrad)"/>
  <!-- Candles -->
  <rect x="30" y="30" width="6" height="22" fill="#74b9ff"/>
  <rect x="47" y="25" width="6" height="27" fill="#a29bfe"/>
  <rect x="64" y="30" width="6" height="22" fill="#fd79a8"/>
  <!-- Flames -->
  <ellipse cx="33" cy="25" rx="4" ry="7" fill="#ffeaa7"/>
  <ellipse cx="50" cy="20" rx="4" ry="7" fill="#ffeaa7"/>
  <ellipse cx="67" cy="25" rx="4" ry="7" fill="#ffeaa7"/>
  <ellipse cx="33" cy="24" rx="2" ry="4" fill="#fdcb6e"/>
  <ellipse cx="50" cy="19" rx="2" ry="4" fill="#fdcb6e"/>
  <ellipse cx="67" cy="24" rx="2" ry="4" fill="#fdcb6e"/>
</svg>
