<svg xmlns="http://www.w3.org/2000/svg" viewBox="0 0 36 36">
  <!-- Half-moon reading glasses - grandma style -->
  <!-- Left lens frame -->
  <path fill="#8B4513" d="M2 18c0-1 .5-2 1.5-2.5C5 15 7 15 9 15c3 0 5 .5 6 1.5.5.5.8 1.2.5 2-.5 1.5-2 5-4 6.5-1.5 1-3.5 1-5.5.5-2-.5-3-2-3.5-4-.3-1-.5-2.5-.5-3.5z"/>
  <!-- Right lens frame -->
  <path fill="#8B4513" d="M34 18c0-1-.5-2-1.5-2.5-1.5-.5-3.5-.5-5.5-.5-3 0-5 .5-6 1.5-.5.5-.8 1.2-.5 2 .5 1.5 2 5 4 6.5 1.5 1 3.5 1 5.5.5 2-.5 3-2 3.5-4 .3-1 .5-2.5.5-3.5z"/>
  <!-- Bridge -->
  <path fill="#8B4513" d="M15 16.5c0-.5 1-1.5 3-1.5s3 1 3 1.5c0 .3-.5.5-1 .5h-4c-.5 0-1-.2-1-.5z"/>
  <!-- Left temple arm -->
  <path fill="#8B4513" d="M2 17.5L0 12c-.1-.3 0-.5.3-.5h.5c.3 0 .5.2.6.4L3 17"/>
  <!-- Right temple arm -->
  <path fill="#8B4513" d="M34 17.5l2-5.5c.1-.3 0-.5-.3-.5h-.5c-.3 0-.5.2-.6.4L33 17"/>
  <!-- Left lens (slightly tinted) -->
  <path fill="#E8D4B8" opacity="0.4" d="M3 18c0-.8.4-1.5 1.2-2 1.2-.4 2.8-.5 4.8-.5 2.5 0 4.2.4 5 1.2.4.4.5.8.3 1.3-.4 1.2-1.6 4-3.2 5.3-1.2.8-2.8.8-4.4.4-1.6-.4-2.4-1.6-2.8-3.2-.2-.8-.4-2-.4-2.8z"/>
  <!-- Right lens (slightly tinted) -->
  <path fill="#E8D4B8" opacity="0.4" d="M33 18c0-.8-.4-1.5-1.2-2-1.2-.4-2.8-.5-4.8-.5-2.5 0-4.2.4-5 1.2-.4.4-.5.8-.3 1.3.4 1.2 1.6 4 3.2 5.3 1.2.8 2.8.8 4.4.4 1.6-.4 2.4-1.6 2.8-3.2.2-.8.4-2 .4-2.8z"/>
  <!-- Chain attachment (grandma style!) -->
  <circle fill="#D4AF37" cx="2" cy="18" r="1"/>
  <circle fill="#D4AF37" cx="34" cy="18" r="1"/>
  <!-- Chain hint -->
  <path fill="none" stroke="#D4AF37" stroke-width="0.5" d="M2 19c-1 2-1 4 0 6M34 19c1 2 1 4 0 6"/>
</svg>